<svg xmlns="http://www.w3.org/2000/svg" width="512" height="512">
  <path d="M99 168v10c7-14 5-30 24-34h11l15 7c3-1 12 8 12-8-4-4-6-12-16-19-5-8-9-14-17-23s-16-14-19-1-6 18-7 30-3 22-3 34Z" fill="#CE0D1A" stroke="None"/>
  <path d="M347 154h13l14-1c6 3 18 3 23 9 6 6 4 3 7 9 4 5 2 7 3 13v-18l-1-10c0-10-4-26-5-35-2-9-7-25-15-19-9 6-15 12-20 20s-14 17-21 25Z" fill="#D10F1B" stroke="None"/>
  <path d="M83 212c-5 32-3 71 25 94s54 32 89 38 83 6 118-1c35-6 61-16 87-40 27-24 29-65 20-98 40 68 10 155-52 201-63 45-157 48-222 5S50 284 83 212Z" fill="#B7B6BA" stroke="None"/>
  <path d="M213 278c8-6-6-12-14-15-7-3-22-7-31-6-1 11 16 6 24 9 7 4 16 5 21 12Z" fill="#1D1C1F" stroke="None"/>
  <path d="M338 257c-7 1-21 2-27 5s-18 6-19 13c-1 6 13-4 18-6s20-7 27-5l1-7Z" fill="#15181E" stroke="None"/>
  <path d="M277 300h9c7 2 18-8 10-13-5 16-31 8-39-1 7 2 13-11 6-13-7-1-16-3-22 0-6 4 5 13 7 15-9 7-32 13-36-2-10 6 5 15 14 14s20-2 27-9c7 5 15 9 24 9Z" fill="#161617" stroke="None"/>
  <path d="M286 300c7 2 18-8 10-13-5 16-31 8-39-1 7 2 13-11 6-13-7-1-16-3-22 0-6 4 5 13 7 15-9 7-32 13-36-2-10 6 5 15 14 14s20-2 27-9c7 5 15 9 24 9h9Zm52-43c-7 1-21 2-27 5s-18 6-19 13 13-4 18-6 20-7 27-5l1-7m-125 21c8-6-6-12-14-15-7-3-22-7-31-6-1 11 16 6 24 9 7 4 16 5 21 12m-56-136c3-4 4-1 9-7 6-4 9-2 12-6 6-2 6-5 11-9 16-11 43-9 65-9s50 0 65 8l18 11c7 5 6 3 11 12 7 8 5 7 12 9h14c7-1 18 2 23 8 6 6 4 3 7 9 4 5 2 7 3 13 1 4 6 7 8 11l7 13c9 33 7 74-20 98-26 24-52 34-87 40-35 7-83 7-118 1s-61-15-89-38-30-62-25-94l7-17c3-5 9-9 9-15v-2c7-14 5-30 24-34h11l14 3c4 2 8 6 9-4" fill="#FBFDFD" stroke="None"/>
  <path d="M239 457c-34 0-74-1-106-6s-57-8-82-30c-26-21 7-55 32-60 16 27 39 43 64 62 24 19 61 31 92 34Zm7-3a543 543 0 0 0 150-6c27-6 50-10 68-32 18-23-17-50-37-55-14 24-35 41-57 58s-51 31-81 33Z" fill="#A0A1A8" stroke="None"/>
  <path d="M83 361c16 27 39 43 64 62 24 19 61 31 92 34h35l17-3c28-4 57-18 79-35s43-34 57-58c13-22 21-47 21-73v-12c0-18-3-37-9-53s-15-30-14-48-4-38-7-55a527 527 0 0 0-14-51l-10 3c-2 1-8 2-16 7s-16 7-24 13c-7 6-14 8-21 16-7 7-15 6-25 2s-21-4-31-6-24-3-35-2l-32 5c-10 2-17 6-27 9-11-12-26-20-39-30s-30-15-37-18c-2-1-4 5-6 9s-8 15-11 29l-8 43c-2 14 3 34-3 47a195 195 0 0 0-12 130c5 13 9 23 16 35m73-214 10-10 13-8 11-6c21-8 41-11 63-11s44 4 65 10c8 2 10 8 16 12l18 12c0-7 9-16 14-24s11-14 20-20c8-6 13 10 15 19 1 9 5 25 5 35l1 10v15c1 4 6 7 8 11l7 13c40 68 10 155-52 201-63 45-157 48-222 5S50 284 83 212l7-17c3-5 9-9 9-15v-12c0-12 2-22 3-34s4-17 7-30 13-7 19 1 12 12 17 20l10 19Z" fill="#131314" stroke="None"/>
</svg>
